<svg class="canvas" viewBox="0 0 1920 1080" preserveAspectRatio="xMaxYMid slice" xmlns="http://www.w3.org/2000/svg" version="1.1" xmlns:xlink="http://www.w3.org/1999/xlink" xmlns:svgjs="http://svgjs.dev/svgjs"><rect width="1920" height="1080" fill="hsl(150, 65%, 15%)"></rect><defs><linearGradient x1="0.5" y1="0" x2="0" y2="1" id="SvgjsLinearGradient1329"><stop stop-color="#288a81" offset="0"></stop><stop stop-color="#060714" offset="0.1"></stop></linearGradient><linearGradient x1="0.5" y1="0" x2="0" y2="1" id="SvgjsLinearGradient1330"><stop stop-color="#288a6d" offset="0"></stop><stop stop-color="#060a14" offset="0.22857142857142856"></stop></linearGradient><linearGradient x1="0.5" y1="0" x2="0" y2="1" id="SvgjsLinearGradient1331"><stop stop-color="#288a6d" offset="0"></stop><stop stop-color="#060a14" offset="0.3571428571428571"></stop></linearGradient><linearGradient x1="0.5" y1="0" x2="0" y2="1" id="SvgjsLinearGradient1332"><stop stop-color="#c0f2d9" offset="0"></stop><stop stop-color="#428cd7" offset="0.48571428571428565"></stop></linearGradient><linearGradient x1="0.5" y1="0" x2="0" y2="1" id="SvgjsLinearGradient1333"><stop stop-color="#c0edf2" offset="0"></stop><stop stop-color="#5142d7" offset="0.6142857142857142"></stop></linearGradient><linearGradient x1="0.5" y1="0" x2="0" y2="1" id="SvgjsLinearGradient1334"><stop stop-color="#c0f2e3" offset="0"></stop><stop stop-color="#426ed7" offset="0.7428571428571429"></stop></linearGradient><linearGradient x1="0.5" y1="0" x2="0" y2="1" id="SvgjsLinearGradient1335"><stop stop-color="#c0f2ed" offset="0"></stop><stop stop-color="#4251d7" offset="0.8714285714285713"></stop></linearGradient></defs><path d="M0,-530.2093690461602C47.914448591081964,-513.065099302542,199.57544868810595,-448.6021697069479,287.4866915464918,-427.34375058445073C375.3979344048776,-406.08533146195356,438.9654495184716,-419.2008149882598,527.4674571503151,-402.65885431117727C615.9694647821586,-386.1168936340947,721.5444349595035,-357.3930055186621,818.4987373375529,-328.0919865219554C915.4530397156024,-298.7909675252487,1018.6426463725403,-252.33766320604818,1109.1932714186114,-226.85274033093694C1199.7438964646826,-201.3678174558257,1277.42165757679,-203.97280605026396,1361.8024876139798,-175.182449271288C1446.1833176511695,-146.39209249231203,1522.4453329107466,-84.93944636126913,1615.47825164175,-54.11059965708117C1708.5111703727532,-23.281752952893196,1869.246375273625,-0.8595741479803358,1920,9.79063095383983L 1920 1080 L 0 1080 Z" fill="url(&quot;#SvgjsLinearGradient1329&quot;)"></path><path d="M0,-455.9441131292849C63.13854405556639,-432.1913363452207,245.20396000219708,-350.3495523094593,378.83126433339834,-313.42745242489946C512.4585686645996,-276.50535254033963,676.0685527823013,-271.9059549287392,801.7638259872076,-234.41151382192604C927.459099192114,-196.91707271511285,1009.5101558629235,-119.3767013429005,1133.0029035628365,-88.4608057840203C1256.4956512627496,-57.544910225140086,1411.5541294471582,-80.0498749587197,1542.7203121866855,-48.916140468644755C1673.886494926213,-17.78240597856981,1857.1200520311143,73.79864421891703,1920,98.34160115642939L 1920 1080 L 0 1080 Z" fill="url(&quot;#SvgjsLinearGradient1330&quot;)"></path><path d="M0,-252.87471524559044C85.76824712492656,-230.81468513227634,363.8686428162257,-170.06779861175764,514.6094827495593,-120.51453456570582C665.350322682893,-70.961270519654,740.6849305225187,5.319458166034337,904.4450396000016,44.44486903072045C1068.2051486774844,83.57027989540656,1327.9109771477902,69.02928990655789,1497.1701372144566,114.23793062241086C1666.4292972811231,159.44657133826382,1849.5283562024094,282.1202495419336,1920,315.6967133258382L 1920 1080 L 0 1080 Z" fill="url(&quot;#SvgjsLinearGradient1331&quot;)"></path><path d="M0,-179.32478192711284C46.817243276952574,-170.54319262717783,189.1970273678699,-150.63153851624085,280.90345966171543,-126.63524612750274C372.60989195556095,-102.63895373876463,459.52509243104447,-73.19108471140031,550.2385937630733,-35.34702759468415C640.9520950951021,2.4970295220320082,737.2843938553758,72.23781466677102,825.1844676538882,100.4290965727942C913.0845414524006,128.62037847881737,989.3091190990021,113.82019888146625,1077.6390365541477,133.80066384145488C1165.9689540092932,153.7811288014435,1262.2322499055228,193.38215908832103,1355.1639723847616,220.31188633272592C1448.0956948640003,247.2416135771308,1541.0900334937064,264.84228154166686,1635.2293714295795,295.3790273078842C1729.3687093654526,325.91577307410154,1872.5382285715966,385.5068053263391,1920,403.53236093003005L 1920 1080 L 0 1080 Z" fill="url(&quot;#SvgjsLinearGradient1332&quot;)"></path><path d="M0,-48.037593135346654C38.962142226465026,-27.47623827202201,139.64004594613147,50.46787437064428,233.77285335879014,75.33053604460122C327.9056607714488,100.19319771855815,460.0602032550319,81.03844342781377,564.7968444759522,101.13837690839497C669.5334856968724,121.23831038897617,766.7899683403658,168.1147321160072,862.1927006843116,195.9301369280884C957.5954330282574,223.74554174016959,1055.1837850220013,243.3841202586816,1137.213238539627,268.0308057808822C1219.2426920572525,292.6774913030828,1269.6276790060328,319.03863254053346,1354.3694217900656,343.810250061292C1439.1111645740984,368.5818675820505,1551.3919322088343,382.4446752477302,1645.6636952438234,416.6605109054333C1739.9354582788126,450.8763465631364,1874.2772825406373,527.0311384904976,1920,549.1052640075105L 1920 1080 L 0 1080 Z" fill="url(&quot;#SvgjsLinearGradient1333&quot;)"></path><path d="M0,68.17800820859863C34.68070503628177,82.22906417039604,132.15075527852105,123.73831099488491,208.08423021769065,152.48434397938317C284.01770515686025,181.2303769638814,372.1773026517815,215.41019227546235,455.6008496350176,240.65420611558815C539.0243966182537,265.89821995571396,630.5362365378174,284.5496421936552,708.6255121171073,303.94842702013796C786.7147876963971,323.3472118466207,835.9375169997686,327.6387947319603,924.1365031107564,357.0469150744848C1012.3354892217442,386.4550354170093,1147.3441985024535,452.7473539564302,1237.8194287830343,480.39714907528503C1328.294659063615,508.0469441941399,1400.4018531917588,496.51123513996856,1466.9878847942405,522.9456857876138C1533.573916396722,549.380136435259,1561.8335991969639,612.8937039862305,1637.3356183979238,639.0038529611566C1712.8376375988837,665.1140019360826,1872.8892697329873,672.8394585245012,1920,679.6065796371701L 1920 1080 L 0 1080 Z" fill="url(&quot;#SvgjsLinearGradient1334&quot;)"></path><path d="M0,254.36980696433895C48.20091931258076,263.63909562000293,181.15303372528484,283.02027516928683,289.20551587548454,309.9855388983227C397.25799802568423,336.9508026273586,539.798686439537,369.2322979487781,648.3148929011982,416.1613893385544C756.8310993628593,463.09048072833065,830.486558357551,552.1628093046629,940.3027546454513,591.5600872369802C1050.1189509333515,630.9573651692974,1190.5973467258536,624.1963283880465,1307.2120706285998,652.5450569324582C1423.826794531346,680.89378547687,1537.8597765000281,723.7292858790898,1639.9910980619281,761.6524585034509C1742.1224196238281,799.575631127812,1873.331849676988,860.3454869827624,1920,880.0840926786248L 1920 1080 L 0 1080 Z" fill="url(&quot;#SvgjsLinearGradient1335&quot;)"></path></svg>
